<svg width="22" height="26" viewBox="0 0 22 26" fill="none" xmlns="http://www.w3.org/2000/svg">
<path d="M17.7741 13.784C17.7444 10.561 20.4696 8.99298 20.5943 8.91998C19.0509 6.71698 16.6586 6.41598 15.818 6.39198C13.8088 6.18498 11.8599 7.56898 10.8364 7.56898C9.7925 7.56898 8.21641 6.41198 6.51775 6.44598C4.33186 6.47898 2.28694 7.71798 1.16539 9.64198C-1.1492 13.565 0.577042 19.33 2.79459 22.501C3.90388 24.054 5.20009 25.788 6.89671 25.727C8.55655 25.66 9.17657 24.691 11.1796 24.691C13.1643 24.691 13.7465 25.727 15.4768 25.688C17.2582 25.66 18.3798 24.128 19.4502 22.561C20.7321 20.781 21.247 19.028 21.2674 18.938C21.2255 18.924 17.8078 17.647 17.7741 13.784Z" fill="white"/>
<path d="M14.5054 4.30598C15.3982 3.21298 16.009 1.72598 15.8394 0.21698C14.5473 0.27298 12.9314 1.09198 12.0009 2.16098C11.1776 3.10298 10.4421 4.64698 10.6321 6.09898C12.0836 6.20498 13.5739 5.38198 14.5054 4.30598Z" fill="white"/>
</svg>
