<svg width="32" height="32" viewBox="0 0 32 32" fill="none" xmlns="http://www.w3.org/2000/svg">
<g clip-path="url(#clip0_1_220)">
<path d="M27 6H5C4.44772 6 4 6.44772 4 7V25C4 25.5523 4.44772 26 5 26H27C27.5523 26 28 25.5523 28 25V7C28 6.44772 27.5523 6 27 6Z" stroke="#555555" stroke-width="1.5" stroke-linecap="round" stroke-linejoin="round"/>
<path d="M4 12H28" stroke="#555555" stroke-width="1.5" stroke-linecap="round" stroke-linejoin="round"/>
<path d="M8.06539 9.97001C8.57073 9.97001 8.98039 9.56036 8.98039 9.05502C8.98039 8.54968 8.57073 8.14001 8.06539 8.14001C7.56005 8.14001 7.15039 8.54968 7.15039 9.05502C7.15039 9.56036 7.56005 9.97001 8.06539 9.97001Z" fill="#555555"/>
<path d="M11.6259 9.97001C12.1313 9.97001 12.5409 9.56036 12.5409 9.05502C12.5409 8.54968 12.1313 8.14001 11.6259 8.14001C11.1206 8.14001 10.7109 8.54968 10.7109 9.05502C10.7109 9.56036 11.1206 9.97001 11.6259 9.97001Z" fill="#555555"/>
<path d="M15.1875 9.97001C15.6928 9.97001 16.1025 9.56036 16.1025 9.05502C16.1025 8.54968 15.6928 8.14001 15.1875 8.14001C14.6821 8.14001 14.2725 8.54968 14.2725 9.05502C14.2725 9.56036 14.6821 9.97001 15.1875 9.97001Z" fill="#555555"/>
</g>
<defs>
<clipPath id="clip0_1_220">
<rect width="32" height="32" fill="white"/>
</clipPath>
</defs>
</svg>
