<svg width="24" height="26" viewBox="0 0 24 26" fill="none" xmlns="http://www.w3.org/2000/svg">
<path d="M0.597344 0.53875C0.296062 0.84625 0.121704 1.325 0.121704 1.945V24.06C0.121704 24.68 0.296062 25.1588 0.597344 25.4663L0.671704 25.5338L13.382 13.1463V12.8538L0.671704 0.466251L0.597344 0.53875Z" fill="url(#paint0_linear_2001_163)"/>
<path d="M17.6139 17.2775L13.3819 13.1462V12.8537L17.6191 8.7225L17.7139 8.77625L22.7319 11.56C24.1639 12.35 24.1639 13.65 22.7319 14.445L17.7139 17.2237L17.6139 17.2775V17.2775Z" fill="url(#paint1_linear_2001_163)"/>
<path d="M17.714 17.2238L13.382 13L0.597351 25.4663C1.07299 25.9538 1.84863 26.0125 2.73068 25.525L17.714 17.2238" fill="url(#paint2_linear_2001_163)"/>
<path d="M17.714 8.77625L2.73068 0.475003C1.84863 -0.0074967 1.07299 0.0512517 0.597351 0.538752L13.382 13L17.714 8.77625Z" fill="url(#paint3_linear_2001_163)"/>
<defs>
<linearGradient id="paint0_linear_2001_163" x1="12.2534" y1="24.2903" x2="-4.52358" y2="7.08311" gradientUnits="userSpaceOnUse">
<stop stop-color="#00A0FF"/>
<stop offset="0.0066" stop-color="#00A1FF"/>
<stop offset="0.2601" stop-color="#00BEFF"/>
<stop offset="0.5122" stop-color="#00D2FF"/>
<stop offset="0.7604" stop-color="#00DFFF"/>
<stop offset="1" stop-color="#00E3FF"/>
</linearGradient>
<linearGradient id="paint1_linear_2001_163" x1="24.5967" y1="12.9986" x2="-0.220664" y2="12.9986" gradientUnits="userSpaceOnUse">
<stop stop-color="#FFE000"/>
<stop offset="0.4087" stop-color="#FFBD00"/>
<stop offset="0.7754" stop-color="#FFA500"/>
<stop offset="1" stop-color="#FF9C00"/>
</linearGradient>
<linearGradient id="paint2_linear_2001_163" x1="15.3584" y1="10.7039" x2="-7.39263" y2="-12.6305" gradientUnits="userSpaceOnUse">
<stop stop-color="#FF3A44"/>
<stop offset="1" stop-color="#C31162"/>
</linearGradient>
<linearGradient id="paint3_linear_2001_163" x1="-2.6208" y1="32.8238" x2="7.53854" y2="22.4041" gradientUnits="userSpaceOnUse">
<stop stop-color="#32A071"/>
<stop offset="0.0685" stop-color="#2DA771"/>
<stop offset="0.4762" stop-color="#15CF74"/>
<stop offset="0.8009" stop-color="#06E775"/>
<stop offset="1" stop-color="#00F076"/>
</linearGradient>
</defs>
</svg>
